<?xml version="1.0" encoding="UTF-8" standalone="no"?>
<!DOCTYPE svg PUBLIC "-//W3C//DTD SVG 1.1//EN" "http://www.w3.org/Graphics/SVG/1.1/DTD/svg11.dtd">
<svg width="100%" height="100%" viewBox="0 0 186 149" version="1.1" xmlns="http://www.w3.org/2000/svg" xmlns:xlink="http://www.w3.org/1999/xlink" xml:space="preserve" xmlns:serif="http://www.serif.com/" style="fill-rule:evenodd;clip-rule:evenodd;stroke-linejoin:round;stroke-miterlimit:2;">
    <g transform="matrix(1.62198,0,0,1.30231,-892.661,-407.163)">
        <path d="M571.929,422.287L568.656,418.98C567.743,419.826 566.819,420.494 565.884,420.984C564.971,421.474 563.847,421.719 562.511,421.719C561.509,421.719 560.585,421.53 559.739,421.151C558.915,420.75 558.202,420.216 557.601,419.548C557.022,418.88 556.566,418.101 556.232,417.21C555.898,416.319 555.731,415.373 555.731,414.371L555.731,414.304C555.731,413.302 555.898,412.367 556.232,411.499C556.566,410.608 557.033,409.829 557.634,409.161C558.236,408.493 558.948,407.97 559.772,407.591C560.618,407.212 561.531,407.023 562.511,407.023C563.691,407.023 564.749,407.257 565.684,407.725C566.641,408.192 567.576,408.838 568.489,409.662L571.762,405.888C571.228,405.353 570.649,404.863 570.026,404.418C569.402,403.973 568.723,403.594 567.988,403.282C567.254,402.971 566.43,402.726 565.517,402.548C564.626,402.37 563.635,402.28 562.544,402.28C560.741,402.28 559.093,402.603 557.601,403.249C556.109,403.873 554.829,404.741 553.76,405.854C552.691,406.945 551.856,408.226 551.255,409.695C550.654,411.142 550.353,412.701 550.353,414.371L550.353,414.438C550.353,416.108 550.654,417.678 551.255,419.147C551.856,420.617 552.691,421.897 553.76,422.988C554.829,424.057 556.098,424.903 557.568,425.526C559.037,426.15 560.629,426.462 562.344,426.462C563.479,426.462 564.504,426.361 565.417,426.161C566.329,425.983 567.164,425.716 567.921,425.359C568.701,424.981 569.413,424.536 570.059,424.024C570.705,423.511 571.328,422.932 571.929,422.287Z" style="fill-rule:nonzero;"/>
        <path d="M596.812,426.061L596.812,402.681L591.735,402.681L591.735,417.076L580.78,402.681L576.038,402.681L576.038,426.061L581.114,426.061L581.114,411.198L592.437,426.061L596.812,426.061Z" style="fill-rule:nonzero;"/>
        <path d="M619.323,419.147L619.323,419.08C619.323,418.056 619.156,417.177 618.822,416.442C618.511,415.707 618.032,415.072 617.386,414.538C616.763,413.981 615.983,413.514 615.048,413.135C614.135,412.735 613.089,412.378 611.909,412.067C610.907,411.799 610.072,411.566 609.404,411.365C608.758,411.165 608.246,410.953 607.867,410.731C607.489,410.508 607.221,410.263 607.066,409.996C606.932,409.706 606.865,409.372 606.865,408.994L606.865,408.927C606.865,408.348 607.11,407.869 607.6,407.491C608.112,407.09 608.869,406.89 609.871,406.89C610.873,406.89 611.875,407.101 612.877,407.524C613.879,407.925 614.903,408.482 615.95,409.194L618.622,405.32C617.419,404.362 616.095,403.628 614.647,403.115C613.222,402.603 611.652,402.347 609.938,402.347C608.736,402.347 607.633,402.514 606.631,402.848C605.629,403.182 604.761,403.661 604.026,404.284C603.314,404.908 602.757,405.654 602.356,406.522C601.956,407.368 601.755,408.326 601.755,409.395L601.755,409.461C601.755,410.619 601.933,411.588 602.29,412.367C602.668,413.146 603.191,413.803 603.859,414.338C604.527,414.85 605.34,415.284 606.297,415.64C607.255,415.997 608.324,416.319 609.504,416.609C610.484,416.854 611.274,417.088 611.875,417.31C612.499,417.533 612.977,417.756 613.311,417.978C613.668,418.201 613.901,418.446 614.013,418.713C614.146,418.958 614.213,419.247 614.213,419.581L614.213,419.648C614.213,420.338 613.913,420.884 613.311,421.285C612.732,421.663 611.909,421.853 610.84,421.853C609.504,421.853 608.268,421.596 607.132,421.084C606.019,420.572 604.928,419.882 603.859,419.014L600.82,422.654C602.223,423.923 603.781,424.87 605.496,425.493C607.21,426.094 608.958,426.395 610.74,426.395C612.009,426.395 613.167,426.239 614.213,425.927C615.26,425.593 616.161,425.126 616.918,424.525C617.676,423.901 618.266,423.144 618.689,422.253C619.112,421.34 619.323,420.305 619.323,419.147Z" style="fill-rule:nonzero;"/>
        <path d="M640.599,426.061L640.599,421.385L628.942,421.385L628.942,402.681L623.799,402.681L623.799,426.061L640.599,426.061Z" style="fill-rule:nonzero;"/>
        <path d="M664.68,426.061L658.968,417.711C660.46,417.154 661.663,416.286 662.575,415.106C663.511,413.903 663.978,412.356 663.978,410.463L663.978,410.397C663.978,407.97 663.199,406.077 661.64,404.719C660.104,403.36 657.944,402.681 655.161,402.681L644.473,402.681L644.473,426.061L649.617,426.061L649.617,418.579L653.658,418.579L658.668,426.061L664.68,426.061ZM658.768,410.731C658.768,411.733 658.423,412.534 657.733,413.135C657.065,413.736 656.096,414.037 654.827,414.037L649.617,414.037L649.617,407.324L654.727,407.324C655.996,407.324 656.987,407.602 657.699,408.159C658.412,408.715 658.768,409.55 658.768,410.664L658.768,410.731Z" style="fill-rule:nonzero;"/>
    </g>
    <g transform="matrix(0.880102,0,0,1.00856,-441.016,-247.948)">
        <path d="M602.352,319.924C605.968,320.751 609.822,321.198 613.822,321.198C626.43,321.198 637.592,316.759 644.391,309.96L664.402,325.302C652.416,336.21 634.203,343.176 613.822,343.176C577.764,343.176 548.489,321.369 548.489,294.509C548.489,267.65 577.764,245.843 613.822,245.843C634.203,245.843 652.416,252.809 664.402,263.717L644.391,279.059C637.592,272.259 626.43,267.821 613.822,267.821C593.128,267.821 576.327,279.78 576.327,294.509C576.327,303.44 582.503,311.352 591.979,316.198C588.904,321.575 584.228,325.827 578.646,328.221C588.94,328.211 597.88,324.846 602.352,319.924Z" style="fill:rgb(120,180,48);"/>
    </g>
</svg>
